<svg width="128" height="128" viewBox="0 0 128 128" fill="none" xmlns="http://www.w3.org/2000/svg">
<rect width="128" height="128" rx="16" fill="white"/>
<path d="M17 48.3333H111M37.8889 17V27.4444M90.1111 17V27.4444M32.6667 69.2222H43.1111M32.6667 90.1111H43.1111M58.7778 69.2222H69.2222M58.7778 90.1111H69.2222M84.8889 69.2222H95.3333M84.8889 90.1111H95.3333M33.7111 111H94.2889C100.138 111 103.063 111 105.297 109.862C107.262 108.86 108.86 107.262 109.862 105.297C111 103.063 111 100.138 111 94.2889V44.1556C111 38.3061 111 35.3814 109.862 33.1472C108.86 31.1819 107.262 29.5841 105.297 28.5828C103.063 27.4444 100.138 27.4444 94.2889 27.4444H33.7111C27.8617 27.4444 24.9369 27.4444 22.7028 28.5828C20.7375 29.5841 19.1397 31.1819 18.1384 33.1472C17 35.3814 17 38.3061 17 44.1556V94.2889C17 100.138 17 103.063 18.1384 105.297C19.1397 107.262 20.7375 108.86 22.7028 109.862C24.9369 111 27.8616 111 33.7111 111Z" stroke="black" stroke-width="10.4444" stroke-linecap="round" stroke-linejoin="round"/>
</svg>
